%TF.GenerationSoftware,KiCad,Pcbnew,(6.0.10-0)*%
%TF.CreationDate,2023-02-17T15:33:43-08:00*%
%TF.ProjectId,Ex2,4578322e-6b69-4636-9164-5f7063625858,rev?*%
%TF.SameCoordinates,Original*%
%TF.FileFunction,Copper,L1,Top*%
%TF.FilePolarity,Positive*%
%FSLAX46Y46*%
G04 Gerber Fmt 4.6, Leading zero omitted, Abs format (unit mm)*
G04 Created by KiCad (PCBNEW (6.0.10-0)) date 2023-02-17 15:33:43*
%MOMM*%
%LPD*%
G01*
G04 APERTURE LIST*
G04 Aperture macros list*
%AMRoundRect*
0 Rectangle with rounded corners*
0 $1 Rounding radius*
0 $2 $3 $4 $5 $6 $7 $8 $9 X,Y pos of 4 corners*
0 Add a 4 corners polygon primitive as box body*
4,1,4,$2,$3,$4,$5,$6,$7,$8,$9,$2,$3,0*
0 Add four circle primitives for the rounded corners*
1,1,$1+$1,$2,$3*
1,1,$1+$1,$4,$5*
1,1,$1+$1,$6,$7*
1,1,$1+$1,$8,$9*
0 Add four rect primitives between the rounded corners*
20,1,$1+$1,$2,$3,$4,$5,0*
20,1,$1+$1,$4,$5,$6,$7,0*
20,1,$1+$1,$6,$7,$8,$9,0*
20,1,$1+$1,$8,$9,$2,$3,0*%
G04 Aperture macros list end*
%TA.AperFunction,SMDPad,CuDef*%
%ADD10RoundRect,0.250001X0.624999X-0.462499X0.624999X0.462499X-0.624999X0.462499X-0.624999X-0.462499X0*%
%TD*%
%TA.AperFunction,SMDPad,CuDef*%
%ADD11RoundRect,0.250000X-0.450000X0.350000X-0.450000X-0.350000X0.450000X-0.350000X0.450000X0.350000X0*%
%TD*%
%TA.AperFunction,SMDPad,CuDef*%
%ADD12RoundRect,0.250000X-0.537500X-0.425000X0.537500X-0.425000X0.537500X0.425000X-0.537500X0.425000X0*%
%TD*%
%TA.AperFunction,SMDPad,CuDef*%
%ADD13RoundRect,0.250000X-0.475000X0.337500X-0.475000X-0.337500X0.475000X-0.337500X0.475000X0.337500X0*%
%TD*%
%TA.AperFunction,ComponentPad*%
%ADD14R,3.000000X3.000000*%
%TD*%
%TA.AperFunction,ComponentPad*%
%ADD15C,3.000000*%
%TD*%
%TA.AperFunction,SMDPad,CuDef*%
%ADD16RoundRect,0.150000X-0.825000X-0.150000X0.825000X-0.150000X0.825000X0.150000X-0.825000X0.150000X0*%
%TD*%
%TA.AperFunction,SMDPad,CuDef*%
%ADD17R,2.290000X3.000000*%
%TD*%
%TA.AperFunction,ViaPad*%
%ADD18C,0.800000*%
%TD*%
%TA.AperFunction,Conductor*%
%ADD19C,0.250000*%
%TD*%
G04 APERTURE END LIST*
D10*
%TO.P,D2,1,K*%
%TO.N,GND*%
X148432500Y-109372500D03*
%TO.P,D2,2,A*%
%TO.N,Net-(D2-Pad2)*%
X148432500Y-106397500D03*
%TD*%
D11*
%TO.P,R3,1*%
%TO.N,Net-(D1-Pad1)*%
X148425000Y-93747064D03*
%TO.P,R3,2*%
%TO.N,/pin_3*%
X148425000Y-95747064D03*
%TD*%
%TO.P,R1,1*%
%TO.N,+9V*%
X121920000Y-101600000D03*
%TO.P,R1,2*%
%TO.N,/pin_7*%
X121920000Y-103600000D03*
%TD*%
D10*
%TO.P,D1,1,K*%
%TO.N,Net-(D1-Pad1)*%
X148260000Y-90387500D03*
%TO.P,D1,2,A*%
%TO.N,+9V*%
X148260000Y-87412500D03*
%TD*%
D12*
%TO.P,C1,1*%
%TO.N,/pin_2*%
X129472500Y-109085000D03*
%TO.P,C1,2*%
%TO.N,GND*%
X132347500Y-109085000D03*
%TD*%
D13*
%TO.P,C2,1*%
%TO.N,Net-(C2-Pad1)*%
X140030000Y-107182500D03*
%TO.P,C2,2*%
%TO.N,GND*%
X140030000Y-109257500D03*
%TD*%
D14*
%TO.P,J1,1,Pin_1*%
%TO.N,+9V*%
X121920000Y-91440000D03*
D15*
%TO.P,J1,2,Pin_2*%
%TO.N,GND*%
X127000000Y-91440000D03*
%TD*%
D11*
%TO.P,R2,1*%
%TO.N,/pin_7*%
X121920000Y-107034680D03*
%TO.P,R2,2*%
%TO.N,/pin_2*%
X121920000Y-109034680D03*
%TD*%
%TO.P,R4,1*%
%TO.N,/pin_3*%
X148570000Y-99600000D03*
%TO.P,R4,2*%
%TO.N,Net-(D2-Pad2)*%
X148570000Y-101600000D03*
%TD*%
D16*
%TO.P,U1,1,GND*%
%TO.N,GND*%
X134685000Y-94615000D03*
%TO.P,U1,2,TR*%
%TO.N,/pin_2*%
X134685000Y-95885000D03*
%TO.P,U1,3,Q*%
%TO.N,/pin_3*%
X134685000Y-97155000D03*
%TO.P,U1,4,R*%
%TO.N,+9V*%
X134685000Y-98425000D03*
%TO.P,U1,5,CV*%
%TO.N,Net-(C2-Pad1)*%
X139635000Y-98425000D03*
%TO.P,U1,6,THR*%
%TO.N,/pin_2*%
X139635000Y-97155000D03*
%TO.P,U1,7,DIS*%
%TO.N,/pin_7*%
X139635000Y-95885000D03*
%TO.P,U1,8,VCC*%
%TO.N,+9V*%
X139635000Y-94615000D03*
D17*
%TO.P,U1,9*%
%TO.N,N/C*%
X137160000Y-96520000D03*
%TD*%
D18*
%TO.N,/pin_2*%
X129540000Y-104140000D03*
X142240000Y-101600000D03*
X124460000Y-99060000D03*
%TO.N,GND*%
X134620000Y-106680000D03*
%TO.N,/pin_7*%
X127000000Y-104140000D03*
X144780000Y-104140000D03*
%TO.N,/pin_3*%
X144780000Y-96520000D03*
X129540000Y-101600000D03*
%TD*%
D19*
%TO.N,/pin_2*%
X132715000Y-95885000D02*
X134685000Y-95885000D01*
X142240000Y-99060000D02*
X140335000Y-97155000D01*
X142240000Y-101600000D02*
X142240000Y-99060000D01*
X129422180Y-109034680D02*
X129472500Y-109085000D01*
X121920000Y-109034680D02*
X129422180Y-109034680D01*
X129540000Y-99060000D02*
X132715000Y-95885000D01*
X140335000Y-97155000D02*
X139635000Y-97155000D01*
X129540000Y-109017500D02*
X129472500Y-109085000D01*
X129540000Y-104140000D02*
X129540000Y-109017500D01*
X124460000Y-99060000D02*
X129540000Y-99060000D01*
%TO.N,GND*%
X140030000Y-109257500D02*
X132520000Y-109257500D01*
X132520000Y-109257500D02*
X132347500Y-109085000D01*
X127000000Y-91440000D02*
X130175000Y-94615000D01*
X132347500Y-109085000D02*
X132347500Y-108952500D01*
X148432500Y-109372500D02*
X140145000Y-109372500D01*
X130175000Y-94615000D02*
X134685000Y-94615000D01*
X132347500Y-108952500D02*
X134620000Y-106680000D01*
X140145000Y-109372500D02*
X140030000Y-109257500D01*
%TO.N,Net-(C2-Pad1)*%
X139635000Y-106787500D02*
X140030000Y-107182500D01*
X139635000Y-98425000D02*
X139635000Y-106787500D01*
%TO.N,Net-(D1-Pad1)*%
X148260000Y-93582064D02*
X148260000Y-90387500D01*
X148425000Y-93747064D02*
X148260000Y-93582064D01*
%TO.N,+9V*%
X148260000Y-87412500D02*
X141057500Y-94615000D01*
X121920000Y-101600000D02*
X121920000Y-91440000D01*
X141057500Y-94615000D02*
X139635000Y-94615000D01*
X122645000Y-102325000D02*
X130785000Y-102325000D01*
X121920000Y-101600000D02*
X122645000Y-102325000D01*
X121920000Y-91440000D02*
X125947500Y-87412500D01*
X125947500Y-87412500D02*
X148260000Y-87412500D01*
X130785000Y-102325000D02*
X134685000Y-98425000D01*
%TO.N,Net-(D2-Pad2)*%
X148432500Y-101737500D02*
X148432500Y-106397500D01*
X148570000Y-101600000D02*
X148432500Y-101737500D01*
%TO.N,/pin_7*%
X121920000Y-107034680D02*
X121920000Y-103600000D01*
X144780000Y-99060000D02*
X141605000Y-95885000D01*
X122460000Y-104140000D02*
X127000000Y-104140000D01*
X121920000Y-103600000D02*
X122460000Y-104140000D01*
X144780000Y-104140000D02*
X144780000Y-99060000D01*
X141605000Y-95885000D02*
X139635000Y-95885000D01*
%TO.N,/pin_3*%
X129540000Y-101600000D02*
X133985000Y-97155000D01*
X147652064Y-96520000D02*
X148425000Y-95747064D01*
X133985000Y-97155000D02*
X134685000Y-97155000D01*
X148570000Y-99600000D02*
X148425000Y-99455000D01*
X148425000Y-99455000D02*
X148425000Y-95747064D01*
X144780000Y-96520000D02*
X147652064Y-96520000D01*
%TD*%
M02*
